<svg width="39" height="45" viewBox="0 0 39 45" fill="none" xmlns="http://www.w3.org/2000/svg">
<path d="M11.6635 0.510743H12.1635V0.5H27.6017C33.3258 0.5 38.126 6.03098 38.126 12.9803V31.7308C38.126 38.6804 33.3256 44.2111 27.6108 44.2111H11.6635C5.9382 44.2111 1.13013 38.6894 1.13013 31.7523V12.991C1.13013 6.04229 5.93893 0.510743 11.6635 0.510743ZM3.05288 13.0009V13.0018V31.763C3.05288 37.2366 6.81208 41.7833 11.6635 41.7833H27.6108C32.4454 41.7833 36.2032 37.235 36.2032 31.7415V12.991C36.2032 7.49713 32.445 2.94923 27.6017 2.94923H11.6635C6.81988 2.94923 3.06236 7.49741 3.05288 13.0009ZM30.3668 8.60696C30.3668 7.84751 30.8646 7.38772 31.3282 7.38772C31.7919 7.38772 32.2896 7.84751 32.2896 8.60696C32.2896 9.36642 31.7919 9.82621 31.3282 9.82621C30.8646 9.82621 30.3668 9.36642 30.3668 8.60696ZM9.90753 22.3609C9.90753 15.9387 14.3601 10.8262 19.6372 10.8262C24.9142 10.8262 29.3668 15.9387 29.3668 22.3609C29.3668 28.7831 24.9142 33.8956 19.6372 33.8956C14.3601 33.8956 9.90753 28.7831 9.90753 22.3609ZM27.4441 22.3609C27.4441 17.3931 24.0418 13.2647 19.6372 13.2647C15.2326 13.2647 11.8303 17.3931 11.8303 22.3609C11.8303 27.3287 15.2326 31.4571 19.6372 31.4571C24.0418 31.4571 27.4441 27.3287 27.4441 22.3609Z" fill="#070707" stroke="#070707"/>
</svg>
